<svg preserveAspectRatio="xMidYMid meet" data-bbox="0 -0.001 157.6 30.372" viewBox="0 0 157.6 30.35" xmlns="http://www.w3.org/2000/svg" data-type="ugc" role="presentation" aria-hidden="true">
    <g>
        <defs>
            <linearGradient gradientUnits="userSpaceOnUse" y2="27.3" x2="37.65" y1="2.48" x1="37.65" id="5e9d2266-6a2c-4fc3-aaf1-894d11c680f3_comp-ku288hnm">
                <stop stop-color="#00adee" offset=".07"></stop>
                <stop stop-color="#2e3191" offset=".87"></stop>
            </linearGradient>
            <linearGradient gradientUnits="userSpaceOnUse" y2="5.15" x2="12.18" y1="25.16" x1="12.18" id="bf2687dd-b26b-43b9-8369-ec59d168e289_comp-ku288hnm">
                <stop stop-color="#891e2d" offset="0"></stop>
                <stop stop-color="#ec1524" offset="1"></stop>
            </linearGradient>
        </defs>
        <path d="M135.08 20.94v1.21h-2.6v8.11H131v-8.11h-2.59v-1.21z" fill="#000"></path>
        <path d="M141 26.92h-5.6a2.28 2.28 0 0 0 .62 1.66 2.24 2.24 0 0 0 2.71.16 1.55 1.55 0 0 0 .64-1H141a3.11 3.11 0 0 1-.6 1.36 3.17 3.17 0 0 1-1.21.94 4 4 0 0 1-1.65.33 3.77 3.77 0 0 1-1.86-.45 3.18 3.18 0 0 1-1.28-1.29 4.08 4.08 0 0 1-.46-2 4 4 0 0 1 .46-2 3.15 3.15 0 0 1 1.28-1.3 3.77 3.77 0 0 1 1.86-.45 3.83 3.83 0 0 1 1.87.44 3.07 3.07 0 0 1 1.23 1.22 3.43 3.43 0 0 1 .43 1.72 4.09 4.09 0 0 1-.07.66zM139.3 25a1.77 1.77 0 0 0-.74-.72 2.39 2.39 0 0 0-1-.23 2 2 0 0 0-1.47.55 2.16 2.16 0 0 0-.65 1.59h4.13a2.21 2.21 0 0 0-.27-1.19z" fill="#000"></path>
        <path d="M148.08 23.64a3.2 3.2 0 0 1 1.15 2h-1.6a1.68 1.68 0 0 0-.64-1.07 2 2 0 0 0-1.27-.39 1.9 1.9 0 0 0-1.45.61 2.51 2.51 0 0 0-.58 1.8 2.52 2.52 0 0 0 .58 1.81 1.87 1.87 0 0 0 1.45.62 2 2 0 0 0 1.27-.39 1.72 1.72 0 0 0 .64-1.08h1.6a3.23 3.23 0 0 1-1.15 2 3.56 3.56 0 0 1-2.33.75 3.78 3.78 0 0 1-1.87-.45 3.24 3.24 0 0 1-1.28-1.29 4.19 4.19 0 0 1-.46-2 4.12 4.12 0 0 1 .46-2 3.21 3.21 0 0 1 1.28-1.3 3.78 3.78 0 0 1 1.87-.45 3.56 3.56 0 0 1 2.33.83z" fill="#000"></path>
        <path d="M156.78 23.68a3.32 3.32 0 0 1 .77 2.34v4.24H156v-4.08a2.09 2.09 0 0 0-.5-1.51 1.77 1.77 0 0 0-1.37-.54 1.86 1.86 0 0 0-1.44.58 2.36 2.36 0 0 0-.54 1.68v3.87h-1.51v-9.77h1.51v4.09a2.45 2.45 0 0 1 1-1.27 2.86 2.86 0 0 1 1.58-.44 2.65 2.65 0 0 1 2.05.81z" fill="#000"></path>
        <path d="M56.41 5.55a8 8 0 0 1 3-3 8.62 8.62 0 0 1 4.3-1.06 8.46 8.46 0 0 1 4.88 1.45 7.5 7.5 0 0 1 2.91 4h-3.79a4 4 0 0 0-1.6-1.8 4.69 4.69 0 0 0-2.39-.6 4.88 4.88 0 0 0-2.59.67 4.52 4.52 0 0 0-1.77 1.9 6.37 6.37 0 0 0-.64 2.89 6.33 6.33 0 0 0 .61 2.89 4.67 4.67 0 0 0 1.76 1.94 5 5 0 0 0 2.58.69 4.69 4.69 0 0 0 2.39-.6 4 4 0 0 0 1.62-1.79h3.83a7.41 7.41 0 0 1-2.93 3.95 9.07 9.07 0 0 1-9.19.29 7.89 7.89 0 0 1-3-3 8.64 8.64 0 0 1-1.08-4.39 8.69 8.69 0 0 1 1.1-4.43z" fill="#000"></path>
        <path d="M76.3 17.74a6.06 6.06 0 0 1-2.38-2.41 7 7 0 0 1-.85-3.57A7 7 0 0 1 74 8.19a6.1 6.1 0 0 1 2.45-2.38 7.47 7.47 0 0 1 6.9 0 6.23 6.23 0 0 1 2.43 2.4 7.12 7.12 0 0 1 .88 3.58 7 7 0 0 1-.93 3.57 6.4 6.4 0 0 1-2.49 2.38 7.25 7.25 0 0 1-3.49.83 7 7 0 0 1-3.45-.83zm5.14-2.48a3.14 3.14 0 0 0 1.28-1.32 4.4 4.4 0 0 0 .49-2.14 3.91 3.91 0 0 0-1-2.89 3.26 3.26 0 0 0-2.41-1 3.21 3.21 0 0 0-2.4 1 4.05 4.05 0 0 0-1 2.89 4 4 0 0 0 .93 2.9 3.06 3.06 0 0 0 2.36 1 3.39 3.39 0 0 0 1.75-.44z" fill="#000"></path>
        <path d="M108.94 6.62a5.6 5.6 0 0 1 1.47 4.16v7.74h-3.33v-7.28a3.27 3.27 0 0 0-.77-2.37 2.82 2.82 0 0 0-2.15-.87 2.86 2.86 0 0 0-2.16.82 3.24 3.24 0 0 0-.81 2.36v7.29h-3.34v-7.28a3.35 3.35 0 0 0-.78-2.38A2.84 2.84 0 0 0 94.94 8a2.89 2.89 0 0 0-2.18.82 3.29 3.29 0 0 0-.76 2.33v7.29h-3.33V5.25h3.34v1.59a4.46 4.46 0 0 1 1.66-1.3 5.15 5.15 0 0 1 2.23-.47 5.81 5.81 0 0 1 2.76.67 4.58 4.58 0 0 1 1.87 1.88 4.8 4.8 0 0 1 1.88-1.83 5.71 5.71 0 0 1 6.57.83z" fill="#000"></path>
        <path d="M118.23 5.75a5.31 5.31 0 0 1 2.58-.59 5.73 5.73 0 0 1 3.06.85A5.91 5.91 0 0 1 126 8.38a7.82 7.82 0 0 1 .78 3.57 7.9 7.9 0 0 1-.81 3.58 6.08 6.08 0 0 1-2.18 2.41 5.78 5.78 0 0 1-3.07.84 5.38 5.38 0 0 1-4.34-2.12v8.17H113l.08-19.48h3.34v1.91a5.13 5.13 0 0 1 1.81-1.51zm4.69 4.12a3.35 3.35 0 0 0-1.28-1.33 3.54 3.54 0 0 0-1.72-.46 3.32 3.32 0 0 0-1.7.46 3.42 3.42 0 0 0-1.3 1.34 4.28 4.28 0 0 0-.49 2.07 4 4 0 0 0 .48 2.07 3.35 3.35 0 0 0 4.7 1.36 3.59 3.59 0 0 0 1.3-1.35 4.34 4.34 0 0 0 .49-2.1 4 4 0 0 0-.48-2.06z" fill="#000"></path>
        <path d="m134.25 15.55 3.37-10.1h3.55l-4.94 13.17h-4L127.39 5.4h3.57z" fill="#000"></path>
        <path d="M142.81 3.34a1.86 1.86 0 0 1-.57-1.4 1.84 1.84 0 0 1 .58-1.39 2.06 2.06 0 0 1 1.47-.55 2 2 0 0 1 1.46.57 1.84 1.84 0 0 1 .58 1.43 1.84 1.84 0 0 1-.59 1.39 2.06 2.06 0 0 1-1.47.56 2.1 2.1 0 0 1-1.46-.61zm3.1 2.14-.06 13.2h-3.33l.06-13.19z" fill="#000"></path>
        <path d="M151.72 16h5.88v2.74l-9.67-.05V16l5.79-7.73h-5.74V5.53h9.57v2.7z" fill="#000"></path>
        <path d="m29 8.91 2.17-.2c3.6-.32 7.28-.77 10.94-1.41v.12c-3.23 2.07-6.1 3.47-9 5.76l-5.77.47-1.88 15.28L49.83 8.84l-3-7.42-16.78.91z" fill="url(#5e9d2266-6a2c-4fc3-aaf1-894d11c680f3_comp-ku288hnm)"></path>
        <path d="M19.74 2.33 3 1.42 0 8.84l24.37 20.09-1.83-15.28-5.77-.47c-2.95-2.29-5.82-3.69-9-5.76V7.3c3.66.64 7.34 1.09 10.94 1.41l2.17.2z" fill="url(#bf2687dd-b26b-43b9-8369-ec59d168e289_comp-ku288hnm)"></path>
    </g>
</svg>