<svg xmlns="http://www.w3.org/2000/svg" width="245.001" height="57.407" viewBox="0 0 245.001 57.407">
  <g id="Layer_1" data-name="Layer 1" transform="translate(0.014 0.001)">
    <g id="Group_1970" data-name="Group 1970" transform="translate(-0.014 -0.001)">
      <path id="Path_36839" data-name="Path 36839" d="M216.97,53.46c.165-.53.342-1.06.495-1.594q.737-2.56,1.462-5.12c.578-2.042,1.219-4.06,1.78-6.106.538-1.96,1.163-3.9,1.737-5.853.393-1.341.727-2.7,1.2-4.017a4.292,4.292,0,0,1,2.476-2.642,3.87,3.87,0,0,1,5.329,3.253,28.4,28.4,0,0,0,.382,3.032l.543,4.189c.181,1.415.365,2.825.535,4.239.087.717.14,1.442.224,2.162.106.881.244,1.75.354,2.634.11.849.2,1.7.3,2.552.114.893.244,1.784.358,2.677.106.849.2,1.7.3,2.552.118.955.244,1.909.362,2.864.106.849.192,1.7.311,2.552.024.175-.015.21-.173.21h-4.43a.271.271,0,0,1-.311-.273c-.095-.98-.177-1.956-.287-2.93s-.248-1.972-.362-2.958c-.075-.655-.126-1.313-.2-1.968-.122-1.064-.189-2.132-.362-3.191-.106-.651-.134-1.313-.2-1.968-.11-1.037-.232-2.069-.342-3.1-.1-.955-.177-1.909-.28-2.86-.114-1.028-.248-2.057-.365-3.09-.075-.651-.134-1.3-.2-1.948a21.47,21.47,0,0,0-.326-2.229c-.118.355-.248.7-.354,1.06-.849,2.829-1.69,5.658-2.547,8.483-1.03,3.4-2.079,6.79-3.1,10.193-.5,1.672-.951,3.36-1.458,5.026a3.085,3.085,0,0,1-3.655,2.038,2.577,2.577,0,0,1-2.2-2.026c-.574-1.983-1.238-3.939-1.852-5.907q-1.378-4.391-2.737-8.784-.813-2.619-1.628-5.233c-.495-1.61-.991-3.22-1.58-4.83l-.28,2.38c-.185,1.617-.362,3.23-.543,4.847-.134,1.2-.263,2.393-.4,3.589-.149,1.274-.358,2.548-.448,3.826-.07.98-.236,1.952-.314,2.93s-.275,1.936-.346,2.911c-.051.7-.14,1.406-.21,2.108-.106,1-.236,2-.362,3-.036.284.106.662-.158.83s-.641.05-.971.055c-1.117.008-2.232,0-3.345.008-.28,0-.377-.059-.358-.363.07-.98.232-1.94.373-2.911.122-.849.193-1.7.3-2.552s.236-1.695.346-2.54.2-1.7.314-2.548c.146-1.12.26-2.244.448-3.36.14-.814.2-1.64.307-2.458.149-1.145.314-2.287.46-3.43.114-.91.2-1.82.314-2.73.14-1.05.3-2.1.436-3.15.14-1.087.28-2.178.389-3.269a3.973,3.973,0,0,1,7.609-1.457,22.773,22.773,0,0,1,1.313,3.846c.668,2.1,1.285,4.2,1.918,6.309q1.232,4.1,2.456,8.2c.484,1.61.98,3.214,1.47,4.82l.1.012Z" transform="translate(-120.431 -16.988)" fill="#14a89e"/>
      <path id="Path_36840" data-name="Path 36840" d="M61.938,62.271c-5.8,0-11.6-.012-17.4.008a16.049,16.049,0,0,1-3.92-.538,19.988,19.988,0,0,1-4.662-1.808,15.833,15.833,0,0,1-4.41-3.4,13.127,13.127,0,0,1-3.067-5.959,12.227,12.227,0,0,1-.307-2.685q.024-7.306,0-14.611a3.256,3.256,0,0,1,1.745-3.14,3.36,3.36,0,0,1,4.925,2.915c.008,4.886-.008,9.772.008,14.658a6.456,6.456,0,0,0,1.8,4.458,11.909,11.909,0,0,0,6.3,3.3,8.671,8.671,0,0,0,2,.183H80.175A3.377,3.377,0,0,1,83.52,57.51a3.295,3.295,0,0,1-2.964,4.76q-9.31.012-18.62,0Z" transform="translate(-17.096 -18.159)" fill="#13a89e"/>
      <path id="Path_36841" data-name="Path 36841" d="M13.93.022c3.2,0,6.411.015,9.614,0a17.636,17.636,0,0,1,6.183,1.239,18.04,18.04,0,0,1,4.89,2.65,13.18,13.18,0,0,1,5.27,8.47,15.5,15.5,0,0,1,.2,2.49q-.012,7.54,0,15.076a3.364,3.364,0,0,1-3.62,3.351,3.242,3.242,0,0,1-2.991-2.65,4.275,4.275,0,0,1-.063-.865c0-5.073.008-10.147-.008-15.216a6.321,6.321,0,0,0-1.485-4.037,11.318,11.318,0,0,0-6.155-3.553,12.147,12.147,0,0,0-3.313-.366c-6.285.015-12.57-.032-18.854.032A3.366,3.366,0,0,1,.031,3.809,3.135,3.135,0,0,1,1.09.887,3.536,3.536,0,0,1,3.656.022Z" transform="translate(0.014 -0.01)" fill="#f26522"/>
      <path id="Path_36842" data-name="Path 36842" d="M383.759,39.636c0,3.6.024,7.189-.012,10.785a11.74,11.74,0,0,1-.939,4.076,12.4,12.4,0,0,1-3.588,4.8,7.963,7.963,0,0,1-3.341,1.667,14.162,14.162,0,0,1-4.335.308,13.417,13.417,0,0,1-5.157-1.235,9.951,9.951,0,0,1-3.942-3.768,9.992,9.992,0,0,1-1.658-4.83,14.715,14.715,0,0,1,.621-6.616,8.357,8.357,0,0,1,1.54-2.537,12.373,12.373,0,0,1,5.25-3.592,11.961,11.961,0,0,1,5.007-.378,11.361,11.361,0,0,1,2.716.5,5.207,5.207,0,0,1,1.68.709.509.509,0,0,1,.239.445c0,1.216-.012,2.428,0,3.64,0,.393-.146.42-.44.253a13.957,13.957,0,0,0-4.241-1.463,6.567,6.567,0,0,0-5.66,1.325,6.93,6.93,0,0,0-2.323,3.14,8.053,8.053,0,0,0-.382,1.777,9.371,9.371,0,0,0,.4,3.706,6.284,6.284,0,0,0,2.649,3.674,7.264,7.264,0,0,0,3.27,1.235A8.792,8.792,0,0,0,374.761,57a5.69,5.69,0,0,0,3.53-3.78,16.138,16.138,0,0,0,.98-5.849V28.838q0-.678.708-.678c1.117,0,2.232.02,3.349-.012.389-.012.456.121.456.472-.012,3.674-.008,7.345-.008,11.019h-.015Z" transform="translate(-218.92 -17.179)" fill="#13a89e"/>
      <path id="Path_36843" data-name="Path 36843" d="M443.486,59.2a5.3,5.3,0,0,0-2.217-1.757,6.57,6.57,0,0,0-3.29-.343,8,8,0,0,0-2.064.472,6.348,6.348,0,0,0-3.054,2.626,8.968,8.968,0,0,0-1.419,5.919,7.476,7.476,0,0,0,1.859,4.072,6.283,6.283,0,0,0,4.316,2.209,8.946,8.946,0,0,0,5.188-.736,4.072,4.072,0,0,0,1.663-1.711,16.568,16.568,0,0,0,1.623-4.092c.051-.195.118-.312.365-.3,1.215.074,2.425.132,3.64.191.346.015.275.269.287.48a8.153,8.153,0,0,1-1.772,5.615,11.033,11.033,0,0,1-6.72,4.356,16.009,16.009,0,0,1-4.988.175,11.4,11.4,0,0,1-8.879-6.122,11.656,11.656,0,0,1-1.05-5.545,15.415,15.415,0,0,1,.311-2.969,10.121,10.121,0,0,1,1.721-3.787,12.818,12.818,0,0,1,4.882-3.908,10.24,10.24,0,0,1,2.909-.84,13.574,13.574,0,0,1,3.176-.152,10.552,10.552,0,0,1,6.418,2.79,19.308,19.308,0,0,1,3.376,4.083c.232.378.095.522-.21.682-1.667.881-3.337,1.757-5,2.65-2.913,1.567-5.821,3.144-8.733,4.707a10.609,10.609,0,0,0-1.23.655c-.078.055-.22.16-.338-.05-.566-1.013-1.152-2.015-1.73-3.02-.095-.167.036-.2.149-.265q2.594-1.443,5.184-2.9c1.871-1.05,3.742-2.115,5.644-3.191Z" transform="translate(-259.141 -32.36)" fill="#14a89f"/>
      <path id="Path_36844" data-name="Path 36844" d="M307.762,76.492a14.63,14.63,0,0,1-5.231-.725,9.045,9.045,0,0,1-4.98-3.986,13.139,13.139,0,0,1-1.852-5.015,15.284,15.284,0,0,1-.043-4.107,10.215,10.215,0,0,1,1.505-4.333,10.539,10.539,0,0,1,2.73-2.86,11.626,11.626,0,0,1,5.063-2.24,14.011,14.011,0,0,1,4.382.015,12.848,12.848,0,0,1,6.961,3.612,8.8,8.8,0,0,1,2.358,4.543,13.575,13.575,0,0,1,.362,3.581,12.368,12.368,0,0,1-2.73,7.5,12.15,12.15,0,0,1-2.335,2.322,8.716,8.716,0,0,1-2.932,1.33A9.567,9.567,0,0,1,307.762,76.492Zm-7.694-11.825a8.317,8.317,0,0,0,.2,1.862,8.782,8.782,0,0,0,2.076,4.224,5.11,5.11,0,0,0,3.368,1.664,9.065,9.065,0,0,0,5.625-.951,5.056,5.056,0,0,0,2.531-2.9,11.647,11.647,0,0,0,.456-5.88A6.1,6.1,0,0,0,310,57.544a10.22,10.22,0,0,0-4.454-.288,5.366,5.366,0,0,0-3.78,2.162,8.126,8.126,0,0,0-1.694,5.245Z" transform="translate(-179.376 -32.388)" fill="#14a89e"/>
      <path id="Path_36845" data-name="Path 36845" d="M493.011,49.219c0-3.811-.039-7.625.02-11.436a11.822,11.822,0,0,1,1.057-4.738,6.521,6.521,0,0,1,3.128-3.172,14.149,14.149,0,0,1,4.571-1.438,64.838,64.838,0,0,1,6.847-.269c.28-.008.334.1.334.35-.012,1.107-.02,2.209,0,3.316.008.35-.13.4-.436.4-1.462.008-2.924-.07-4.382.039a11.488,11.488,0,0,0-3.793.888,4.524,4.524,0,0,0-2.724,3.464,10.842,10.842,0,0,0-.169,1.983c-.02,1.12.012,2.24-.015,3.36-.012.405.09.522.515.518,3.439-.02,6.882-.012,10.325-.012a3.111,3.111,0,0,0,.33,0c.267-.031.354.074.354.339-.012,1.138-.015,2.272,0,3.409,0,.3-.106.355-.382.355-1.745-.008-3.486.008-5.231.008-1.808,0-3.616.012-5.42-.008-.4,0-.49.121-.49.5.012,4.559,0,9.118.015,13.68,0,.42-.09.56-.538.545-1.163-.035-2.327-.027-3.486,0-.358.008-.44-.1-.44-.445.012-3.873.008-7.75.008-11.62Z" transform="translate(-299.224 -17.19)" fill="#13a89e"/>
      <path id="Path_36846" data-name="Path 36846" d="M574.062,67.931c.036-1.972-.075-4.419.047-6.86a8.368,8.368,0,0,1,1.639-4.391A8.89,8.89,0,0,1,581,53.087a11.182,11.182,0,0,1,6.36.21,8.809,8.809,0,0,1,5.239,4.243,6.971,6.971,0,0,1,.719,3c.21,5.065.027,10.135.1,15.2.008.433-.11.545-.542.534-1.148-.032-2.3-.027-3.439,0-.42.012-.554-.09-.55-.53q.029-6.535.008-13.073a5.727,5.727,0,0,0-.322-2.318,5.493,5.493,0,0,0-2.39-3.02,5.133,5.133,0,0,0-1.8-.445,5.818,5.818,0,0,0-2.456.187,5.21,5.21,0,0,0-3.235,3.242,7.174,7.174,0,0,0-.511,2.8c.02,4.2,0,8.4.015,12.605,0,.42-.1.565-.542.55-1.05-.035-2.107-.027-3.156,0-.365.008-.44-.113-.44-.452.015-2.475.008-4.948.008-7.894Z" transform="translate(-348.42 -32.181)" fill="#13a89e"/>
      <path id="Path_36847" data-name="Path 36847" d="M117.7,6.6c-3.08,0-6.155-.023-9.237.008a3.16,3.16,0,0,1-3.341-2.58A3.205,3.205,0,0,1,107.887.058,9.156,9.156,0,0,1,109.015,0q9,0,18,.015a3.231,3.231,0,0,1,3.31,2.295A3.254,3.254,0,0,1,127.213,6.6c-3.172.008-6.344,0-9.52,0Z" transform="translate(-63.748 0.001)" fill="#13a89e"/>
      <path id="Path_36848" data-name="Path 36848" d="M546.758,64.409c0-3.749,0-7.5-.008-11.242,0-.4.07-.565.526-.55,1.05.039,2.1.027,3.156,0,.373-.008.472.094.472.463q-.018,7.651-.008,15.3c0,2.458-.008,4.913.008,7.372,0,.339-.07.46-.436.452-1.085-.023-2.166-.023-3.25,0-.373.008-.464-.1-.464-.468.012-3.78.008-7.56.008-11.335Z" transform="translate(-331.85 -32.114)" fill="#13a89e"/>
      <path id="Path_36849" data-name="Path 36849" d="M356.544,126.613a3.3,3.3,0,0,1-2.814,3.406,4.651,4.651,0,0,1-4.27-1.391c-.365-.339-.692-.91-1.093-.966s-.688.588-1.05.9a5.025,5.025,0,0,1-4.787,1.352,3.032,3.032,0,0,1-2.327-2.458,3.436,3.436,0,0,1,.91-3.374,3.29,3.29,0,0,1,1.973-.9c2.059-.28,3.525.729,4.842,2.092.287.3.409.428.774,0a5.142,5.142,0,0,1,3.026-1.972c1.745-.288,2.995-.222,4.17,1.184a3.01,3.01,0,0,1,.645,2.12Zm-12.794-2.3a3.965,3.965,0,0,0-.747.047,2.264,2.264,0,0,0-1.737,2.12,2.29,2.29,0,0,0,1.509,2.291,3.3,3.3,0,0,0,3.08-.53,11.31,11.31,0,0,0,1.548-1.418c.193-.179.126-.319-.015-.472a7.321,7.321,0,0,0-2.02-1.644,2.773,2.773,0,0,0-1.619-.39Zm11.673,2.245a2.1,2.1,0,0,0-1.556-2.135,3.459,3.459,0,0,0-2.673.335,9.964,9.964,0,0,0-1.945,1.675.21.21,0,0,0,0,.355,6.37,6.37,0,0,0,3.242,2.112,2.394,2.394,0,0,0,2.936-2.342Z" transform="translate(-206.414 -75.159)" fill="#f26827"/>
      <path id="Path_36850" data-name="Path 36850" d="M551,35.887a2.372,2.372,0,0,1-2.66,2.486,2.31,2.31,0,0,1-2.52-2.564,2.589,2.589,0,0,1,5.177.075Z" transform="translate(-331.288 -20.402)" fill="#14a89f"/>
      <path id="Path_36851" data-name="Path 36851" d="M390.7,125.78a2.091,2.091,0,0,1,.833,2.774,1.777,1.777,0,0,1-1.61,1.091c-.519.027-1.037-.012-1.556.015-.4.02-.326-.246-.314-.463s-.14-.534.311-.51a9.9,9.9,0,0,0,1.226-.008,1.177,1.177,0,0,0,1.05-.729,1.062,1.062,0,0,0-.318-1.219,1.091,1.091,0,0,0-.719-.253c-.444.027-.861-.137-1.3-.109-.4.027-.239-.284-.248-.463s-.122-.472.267-.456c.28.012.566,0,.849,0a1.05,1.05,0,0,0,1.124-.974,1.175,1.175,0,0,0-1.1-1.2c-.92-.058-1.423.425-1.427,1.415-.008,1.523-.027,3.051.012,4.575.012.475-.2.472-.554.48-.373.008-.55-.035-.543-.49.036-1.523.012-3.051.015-4.575a2.235,2.235,0,0,1,2.881-2.26,2.26,2.26,0,0,1,1.368.7,1.99,1.99,0,0,1-.248,2.66Z" transform="translate(-234.693 -74.674)" fill="#f26725"/>
      <path id="Path_36852" data-name="Path 36852" d="M466.463,132.311c.106,1.013-.008,1.149-1.01,1.19a3.549,3.549,0,0,1-1.324-.16,2.057,2.057,0,0,1-1.324-1.57,2.806,2.806,0,0,1,.122-2.038,2.45,2.45,0,0,1,2.441-1.352,2.424,2.424,0,0,1,2.405,1.7c0,.015.015.027.015.043a15.761,15.761,0,0,1-.075,3.85,2.184,2.184,0,0,1-1.969,1.726,4.636,4.636,0,0,1-2.024-.129c-.271-.082-.4-.125-.224-.413a.63.63,0,0,0,.095-.308c-.008-.28.14-.253.326-.195a3.98,3.98,0,0,0,1.434.16,1.549,1.549,0,0,0,1.509-1.547v-2.1a2.068,2.068,0,0,0-.888-1.7,1.593,1.593,0,0,0-2.118.58,1.676,1.676,0,0,0,1.281,2.595c.475.09.888-.218,1.33-.339Z" transform="translate(-280.817 -78.353)" fill="#f26827"/>
      <path id="Path_36853" data-name="Path 36853" d="M546.667,126.262c-.09-1.091-.012-1.145,1.085-1.181a2.486,2.486,0,0,1,2.056.67,2.512,2.512,0,0,1,.4,2.807,2.192,2.192,0,0,1-2.016,1.562,2.337,2.337,0,0,1-2.232-.717,3.132,3.132,0,0,1-.63-1.9c-.012-1.415.015-2.833-.015-4.247-.012-.472.263-.386.538-.393s.5-.031.5.39c-.024,1.477-.015,2.953.008,4.434a1.573,1.573,0,0,0,1.065,1.527A1.711,1.711,0,0,0,549.395,128a2.345,2.345,0,0,0-.07-1.154,1.6,1.6,0,0,0-1.831-.876c-.271.105-.55.2-.833.3Z" transform="translate(-330.981 -74.988)" fill="#f26827"/>
      <path id="Path_36854" data-name="Path 36854" d="M601.178,129.723a1.387,1.387,0,0,0-2.158.144,1.658,1.658,0,0,0,.9,2.712,1.381,1.381,0,0,0,1.726-.91c.063-.175.036-.44.228-.49a2.462,2.462,0,0,1,.794-.015c.185.015.118.195.114.3a2.038,2.038,0,0,1-.991,1.605,2.73,2.73,0,0,1-4.017-1.142,2.59,2.59,0,0,1,2.979-3.507,2.837,2.837,0,0,1,1.8,1.289c.118.156.149.269-.075.386-1.006.526-2,1.075-3,1.6-.424.226-.362-.246-.515-.393-.173-.167-.106-.3.095-.409.7-.382,1.4-.776,2.122-1.173Z" transform="translate(-362.699 -78.347)" fill="#f26827"/>
      <path id="Path_36855" data-name="Path 36855" d="M485.536,126.889c0-.744.012-1.492,0-2.24a2.24,2.24,0,0,1,1.969-2.283,2.641,2.641,0,0,1,2.724,1.61,2.263,2.263,0,0,1-1.761,2.965A6.837,6.837,0,0,1,487,126.9c-.346,0-.13-.37-.173-.565-.039-.175,0-.35.256-.331s.535,0,.8.027a1.26,1.26,0,0,0,1.36-1.3,1.359,1.359,0,0,0-1.324-1.36c-.91.023-1.23.265-1.33,1.173-.165,1.567-.036,3.137-.078,4.7,0,.16.1.405-.1.456a1.93,1.93,0,0,1-.79-.008c-.126-.023-.078-.218-.078-.335v-2.47Z" transform="translate(-294.69 -74.675)" fill="#f26725"/>
      <path id="Path_36856" data-name="Path 36856" d="M405.019,131.783v.7c0,.573-.11.741-.684.84a2.468,2.468,0,0,1-3.168-2.864,2.425,2.425,0,0,1,3.133-2.065c1.576.366,2.04.943,2.04,2.533v.885c0,.328-.024.655.008.98.043.436-.095.612-.566.592-.353-.015-.49-.082-.472-.463.032-.729-.02-1.461.02-2.19a1.248,1.248,0,0,0-.747-1.321,1.728,1.728,0,0,0-1.847.179,1.6,1.6,0,0,0-.609,1.649,1.726,1.726,0,0,0,1.407,1.274,1.254,1.254,0,0,0,1.057-.35c.122-.085.228-.195.436-.374Z" transform="translate(-243.478 -78.311)" fill="#f26827"/>
      <path id="Path_36857" data-name="Path 36857" d="M434.133,125.032a8.657,8.657,0,0,1-1.284,1.927,1.353,1.353,0,0,1,1,1.535c-.012.358-.012.717,0,1.072.015.44-.3.335-.55.358s-.389-.031-.393-.343a4.062,4.062,0,0,0-.07-1.286.781.781,0,0,0-.845-.62c-.9,0-.9,0-.9.861v.84a.551.551,0,0,1-.825.538c-.146-.062-.1-.179-.1-.28q0-3.338-.008-6.67c0-.42.287-.273.49-.288.236-.02.464-.047.456.331-.02,1.087-.008,2.178-.008,3.266,0,.48.263.615.7.393a1.584,1.584,0,0,0,.755-.888,1.132,1.132,0,0,1,1.576-.752Z" transform="translate(-261.088 -74.868)" fill="#f26725"/>
      <path id="Path_36858" data-name="Path 36858" d="M503.865,130.651a2.357,2.357,0,0,1-2.409,2.6,2.463,2.463,0,0,1-2.7-2.747,2.427,2.427,0,0,1,2.543-2.4,2.368,2.368,0,0,1,2.559,2.545Zm-.944,0a1.46,1.46,0,0,0-1.61-1.629,1.483,1.483,0,0,0-1.513,1.6,1.6,1.6,0,0,0,1.47,1.769c1.107-.073,1.677-.526,1.653-1.737Z" transform="translate(-302.72 -78.188)" fill="#f26827"/>
      <path id="Path_36859" data-name="Path 36859" d="M614.22,133.394c-.409,0-.818-.023-1.222.008-.445.031-.311-.273-.326-.49-.015-.242-.036-.46.346-.433.64.043,1.285.035,1.926.047a.79.79,0,0,0,.5-.07c.114-.082.295-.113.275-.328a.446.446,0,0,0-.271-.378,13.216,13.216,0,0,0-1.828-.647,1.455,1.455,0,0,1-.92-1.866.71.71,0,0,1,.452-.495,4.468,4.468,0,0,1,1.427-.234,12.98,12.98,0,0,0,1.458-.02c.433-.05.507.117.49.49-.012.246-.086.316-.33.319a10.966,10.966,0,0,0-1.926.055c-.236.043-.538.035-.574.355s.232.463.48.553a12.232,12.232,0,0,1,1.75.6,1.3,1.3,0,0,1,.794,1.254,1.234,1.234,0,0,1-1.238,1.286c-.424.015-.849,0-1.27,0Z" transform="translate(-371.831 -78.417)" fill="#f26827"/>
      <path id="Path_36860" data-name="Path 36860" d="M515.131,133.4c-.393,0-.786-.027-1.179.008s-.4-.172-.377-.448c.015-.234-.083-.51.35-.48.625.043,1.254.032,1.882.043.11,0,.22.008.33,0a.5.5,0,0,0,.472-.39c.039-.187-.13-.308-.3-.409a4.91,4.91,0,0,0-1.482-.49,1.536,1.536,0,0,1-1.226-1.987.733.733,0,0,1,.523-.534,5.052,5.052,0,0,1,1.341-.2c.49,0,.974.012,1.458-.015.287-.015.468-.02.475.358.008.35-.075.452-.436.445a7.981,7.981,0,0,0-1.879.062c-.2.043-.452.055-.495.335s.173.413.385.507c.538.242,1.136.3,1.67.56a1.434,1.434,0,0,1,.98,1.286,1.221,1.221,0,0,1-1.23,1.344c-.424.02-.849,0-1.273,0h0Z" transform="translate(-311.685 -78.422)" fill="#f26827"/>
      <path id="Path_36861" data-name="Path 36861" d="M527.05,133.366c-.424,0-.849-.02-1.27,0-.4.023-.319-.238-.322-.46s-.063-.48.326-.46c.625.027,1.254.027,1.882.039.078,0,.157,0,.236,0,.28.012.526-.09.56-.374.027-.238-.169-.4-.4-.483-.468-.175-.959-.292-1.427-.46-.881-.312-1.3-.76-1.234-1.582a1.042,1.042,0,0,1,.98-1.013,12.934,12.934,0,0,1,2.052-.1,3.057,3.057,0,0,0,.377-.015c.228-.02.472-.121.468.288,0,.335-.008.542-.456.518a7.984,7.984,0,0,0-1.879.055c-.216.039-.468.05-.495.328a.5.5,0,0,0,.362.495c.55.253,1.168.316,1.714.588a1.375,1.375,0,0,1,.932,1.75,1.163,1.163,0,0,1-1.089.865c-.436.023-.881,0-1.317,0v.008Z" transform="translate(-318.886 -78.391)" fill="#f26725"/>
      <path id="Path_36862" data-name="Path 36862" d="M454.074,131.357c0,.483-.024.966.008,1.446s-.28.405-.582.428-.444-.055-.433-.4c.027-.806.02-1.617,0-2.423a1.286,1.286,0,0,0-.723-1.286,1.129,1.129,0,0,0-1.58,1.068c-.024.853-.032,1.711,0,2.564.015.425-.173.468-.531.483-.4.02-.42-.152-.42-.46.015-.869.015-1.742,0-2.61a1.992,1.992,0,0,1,1.289-1.952,2.352,2.352,0,0,1,2.66.744,1.6,1.6,0,0,1,.3.955c0,.483,0,.963,0,1.446Z" transform="translate(-273.015 -78.169)" fill="#f26725"/>
      <path id="Path_36863" data-name="Path 36863" d="M421.071,131.352c0,.514-.015,1.028,0,1.54s-.37.323-.625.363c-.295.047-.409-.055-.4-.374.024-.873.02-1.742,0-2.615a1.2,1.2,0,0,0-.684-1.12,1.022,1.022,0,0,0-1.108.094,1.385,1.385,0,0,0-.526,1.19c-.008.811-.027,1.621.008,2.428.015.405-.181.4-.48.409-.33.012-.479-.047-.46-.425.051-1.025-.075-2.057.07-3.08a1.927,1.927,0,0,1,2.39-1.586,2.52,2.52,0,0,1,1.12.405,1.65,1.65,0,0,1,.676,1.368v1.4h.015Z" transform="translate(-252.971 -78.199)" fill="#f26725"/>
      <path id="Path_36864" data-name="Path 36864" d="M582.226,128.093c0-.76.024-1.523-.008-2.283-.02-.472.29-.323.526-.343.26-.02.475-.043.468.355-.015.8.012.8.813.8h.472c.56,0,.72.214.578.756-.047.183-.169.148-.287.152-.424,0-.849.015-1.27,0-.251-.008-.326.085-.322.323.012.713-.008,1.43.008,2.143.012.542.169.674.719.682.157,0,.314-.02.468-.023.6-.015.586-.015.589.56,0,.269-.083.35-.346.339a8.384,8.384,0,0,0-1.128,0,1.219,1.219,0,0,1-1.26-1.227c0-.094-.015-.187-.015-.28v-1.956Z" transform="translate(-353.377 -76.573)" fill="#f26522"/>
      <path id="Path_36865" data-name="Path 36865" d="M568.541,126.377c0-1.056.024-2.115-.012-3.172-.015-.436.228-.378.495-.378s.5-.062.5.374q-.036,3.22,0,6.44c0,.425-.22.386-.495.386s-.511.047-.5-.382C568.56,128.554,568.541,127.467,568.541,126.377Z" transform="translate(-345.068 -74.965)" fill="#f26522"/>
      <path id="Path_36866" data-name="Path 36866" d="M576.317,130.971c0,.7-.024,1.4.008,2.1.015.378-.169.4-.452.378-.239-.02-.49.074-.484-.35.027-1.43.024-2.864,0-4.294,0-.4.216-.363.475-.366.28-.008.475.008.456.386-.031.713-.008,1.43-.008,2.147Z" transform="translate(-349.232 -78.392)" fill="#f26522"/>
      <path id="Path_36867" data-name="Path 36867" d="M561.826,130.966c0-.7.02-1.4-.008-2.1-.015-.358.146-.409.444-.393.26.012.479-.027.475.37q-.024,2.1.015,4.2c.008.409-.188.42-.511.44-.393.023-.428-.148-.42-.463C561.842,132.337,561.826,131.652,561.826,130.966Z" transform="translate(-340.995 -78.414)" fill="#f26522"/>
      <path id="Path_36868" data-name="Path 36868" d="M592.051,130.952c0-.717.015-1.43-.008-2.143-.012-.39.236-.319.46-.323.24,0,.46-.039.456.335q-.017,2.145.012,4.29c.008.436-.267.35-.531.37-.3.027-.413-.066-.4-.382.024-.713.008-1.43.008-2.143Z" transform="translate(-359.338 -78.419)" fill="#f26522"/>
      <path id="Path_36869" data-name="Path 36869" d="M443.316,130.956c0-.717.02-1.43-.008-2.143-.015-.393.228-.323.456-.328s.464-.05.46.331q-.017,2.145.015,4.29c.008.428-.26.358-.523.374-.295.02-.42-.055-.409-.378.024-.713.008-1.43.008-2.143Z" transform="translate(-269.064 -78.419)" fill="#f26522"/>
      <path id="Path_36870" data-name="Path 36870" d="M539.276,130.947c0-.7.02-1.4-.008-2.1-.012-.335.134-.4.42-.37.232.023.507-.085.5.339q-.017,2.145.015,4.29c.008.436-.271.35-.531.37-.3.027-.413-.07-.4-.382.024-.713.008-1.43.008-2.143Z" transform="translate(-327.308 -78.415)" fill="#f26522"/>
      <path id="Path_36871" data-name="Path 36871" d="M562.095,124.28c.322.032.566.167.574.534.008.386-.251.545-.594.577a.551.551,0,0,1-.594-.6C561.533,124.487,561.7,124.229,562.095,124.28Z" transform="translate(-340.788 -75.85)" fill="#f26827"/>
      <path id="Path_36872" data-name="Path 36872" d="M576.358,124.81a.57.57,0,0,1-.605.573.545.545,0,0,1-.589-.6.532.532,0,0,1,.605-.507.56.56,0,0,1,.589.534Z" transform="translate(-349.092 -75.85)" fill="#f26827"/>
      <path id="Path_36873" data-name="Path 36873" d="M444.252,124.749a.575.575,0,0,1-.586.651c-.37.039-.526-.179-.55-.53-.027-.393.149-.589.543-.58a.536.536,0,0,1,.594.459Z" transform="translate(-268.947 -75.859)" fill="#f26827"/>
      <path id="Path_36874" data-name="Path 36874" d="M539.705,124.28a.52.52,0,0,1,.507.545c0,.386-.271.545-.606.565-.393.02-.526-.222-.526-.592,0-.4.22-.515.63-.518Z" transform="translate(-327.195 -75.854)" fill="#f26827"/>
      <path id="Path_36875" data-name="Path 36875" d="M591.872,124.795c-.043-.37.185-.51.535-.507a.526.526,0,0,1,.594.522.572.572,0,0,1-.63.592c-.373-.015-.515-.234-.5-.608Z" transform="translate(-359.234 -75.858)" fill="#f26827"/>
    </g>
  </g>
</svg>
